<svg width="195" height="46" viewBox="0 0 195 46" fill="none" xmlns="http://www.w3.org/2000/svg">
<g filter="url(#filter0_d_23_166)">
<mask id="path-1-outside-1_23_166" maskUnits="userSpaceOnUse" x="3" y="-1" width="189" height="40" fill="black">
<rect fill="white" x="3" y="-1" width="189" height="40"/>
<path d="M4.55504 37V0.636363H12.2433V15.6399H27.8505V0.636363H35.521V37H27.8505V21.9787H12.2433V37H4.55504ZM54.1467 37.5327C51.3413 37.5327 48.9265 36.9645 46.9023 35.8281C44.89 34.6799 43.3394 33.0582 42.2504 30.9631C41.1613 28.8561 40.6168 26.3643 40.6168 23.4879C40.6168 20.6825 41.1613 18.2204 42.2504 16.1016C43.3394 13.9827 44.8723 12.3314 46.8491 11.1477C48.8377 9.96401 51.1696 9.37216 53.8448 9.37216C55.6441 9.37216 57.319 9.66217 58.8697 10.2422C60.4322 10.8104 61.7934 11.6686 62.9535 12.8168C64.1254 13.965 65.0368 15.4091 65.6879 17.1491C66.3389 18.8774 66.6644 20.9015 66.6644 23.2216V25.299H43.6353V20.6115H59.5444C59.5444 19.5225 59.3076 18.5578 58.8342 17.7173C58.3607 16.8769 57.7037 16.2199 56.8633 15.7464C56.0347 15.2611 55.07 15.0185 53.9691 15.0185C52.8209 15.0185 51.8029 15.2848 50.9151 15.8175C50.0392 16.3383 49.3526 17.0426 48.8555 17.9304C48.3583 18.8063 48.1038 19.7829 48.092 20.8601V25.3168C48.092 26.6662 48.3406 27.8321 48.8377 28.8146C49.3467 29.7971 50.0629 30.5547 50.9862 31.0874C51.9094 31.62 53.0044 31.8864 54.271 31.8864C55.1114 31.8864 55.8808 31.768 56.5792 31.5312C57.2776 31.2945 57.8754 30.9394 58.3725 30.4659C58.8697 29.9924 59.2485 29.4124 59.5089 28.7259L66.5046 29.1875C66.1495 30.8684 65.4215 32.3362 64.3207 33.5909C63.2317 34.8338 61.823 35.8045 60.0948 36.5028C58.3784 37.1894 56.3957 37.5327 54.1467 37.5327ZM71.6005 37V9.72727H78.9336V14.4858H79.2177C79.7148 12.7931 80.5494 11.5147 81.7212 10.6506C82.8931 9.77462 84.2425 9.33665 85.7695 9.33665C86.1483 9.33665 86.5567 9.36032 86.9947 9.40767C87.4326 9.45502 87.8174 9.52012 88.1488 9.60298V16.3146C87.7937 16.2081 87.3024 16.1134 86.6751 16.0305C86.0477 15.9477 85.4736 15.9062 84.9528 15.9062C83.8401 15.9062 82.8458 16.1489 81.9698 16.6342C81.1057 17.1077 80.4192 17.7706 79.9102 18.6229C79.413 19.4751 79.1644 20.4576 79.1644 21.5703V37H71.6005ZM92.0595 37V9.72727H99.2683V14.5391H99.5879C100.156 12.9411 101.103 11.6804 102.429 10.7571C103.755 9.83381 105.341 9.37216 107.187 9.37216C109.058 9.37216 110.65 9.83973 111.964 10.7749C113.278 11.6982 114.153 12.9529 114.591 14.5391H114.876C115.432 12.9766 116.438 11.7277 117.894 10.7926C119.362 9.84564 121.096 9.37216 123.096 9.37216C125.641 9.37216 127.707 10.183 129.293 11.8047C130.891 13.4145 131.69 15.6991 131.69 18.6584V37H124.144V20.1499C124.144 18.6347 123.742 17.4983 122.937 16.7408C122.132 15.9832 121.126 15.6044 119.918 15.6044C118.545 15.6044 117.474 16.0424 116.704 16.9183C115.935 17.7824 115.55 18.9247 115.55 20.3452V37H108.217V19.9901C108.217 18.6525 107.832 17.5871 107.063 16.794C106.305 16.0009 105.305 15.6044 104.062 15.6044C103.222 15.6044 102.464 15.8175 101.79 16.2436C101.127 16.6579 100.6 17.2438 100.209 18.0014C99.8187 18.7472 99.6234 19.6231 99.6234 20.6293V37H92.0595ZM150.094 37.5327C147.289 37.5327 144.874 36.9645 142.85 35.8281C140.837 34.6799 139.287 33.0582 138.198 30.9631C137.109 28.8561 136.564 26.3643 136.564 23.4879C136.564 20.6825 137.109 18.2204 138.198 16.1016C139.287 13.9827 140.82 12.3314 142.796 11.1477C144.785 9.96401 147.117 9.37216 149.792 9.37216C151.591 9.37216 153.266 9.66217 154.817 10.2422C156.379 10.8104 157.741 11.6686 158.901 12.8168C160.073 13.965 160.984 15.4091 161.635 17.1491C162.286 18.8774 162.612 20.9015 162.612 23.2216V25.299H139.583V20.6115H155.492C155.492 19.5225 155.255 18.5578 154.781 17.7173C154.308 16.8769 153.651 16.2199 152.811 15.7464C151.982 15.2611 151.017 15.0185 149.916 15.0185C148.768 15.0185 147.75 15.2848 146.862 15.8175C145.986 16.3383 145.3 17.0426 144.803 17.9304C144.306 18.8063 144.051 19.7829 144.039 20.8601V25.3168C144.039 26.6662 144.288 27.8321 144.785 28.8146C145.294 29.7971 146.01 30.5547 146.933 31.0874C147.857 31.62 148.952 31.8864 150.218 31.8864C151.059 31.8864 151.828 31.768 152.526 31.5312C153.225 31.2945 153.823 30.9394 154.32 30.4659C154.817 29.9924 155.196 29.4124 155.456 28.7259L162.452 29.1875C162.097 30.8684 161.369 32.3362 160.268 33.5909C159.179 34.8338 157.77 35.8045 156.042 36.5028C154.326 37.1894 152.343 37.5327 150.094 37.5327ZM190.24 17.5043L183.315 17.9304C183.196 17.3385 182.942 16.8059 182.551 16.3324C182.161 15.8471 181.646 15.4624 181.007 15.1783C180.379 14.8823 179.628 14.7344 178.752 14.7344C177.58 14.7344 176.591 14.983 175.786 15.4801C174.981 15.9654 174.579 16.6165 174.579 17.4332C174.579 18.0843 174.839 18.6347 175.36 19.0845C175.881 19.5343 176.775 19.8954 178.041 20.1676L182.977 21.1619C185.629 21.7064 187.606 22.5824 188.908 23.7898C190.21 24.9972 190.861 26.5833 190.861 28.5483C190.861 30.3357 190.334 31.9041 189.281 33.2536C188.239 34.603 186.807 35.6565 184.984 36.4141C183.173 37.1598 181.084 37.5327 178.716 37.5327C175.106 37.5327 172.229 36.781 170.087 35.2777C167.956 33.7625 166.707 31.7029 166.34 29.0987L173.78 28.7081C174.005 29.8089 174.549 30.6494 175.414 31.2294C176.278 31.7976 177.384 32.0817 178.734 32.0817C180.06 32.0817 181.125 31.8272 181.93 31.3182C182.747 30.7973 183.161 30.1286 183.173 29.3118C183.161 28.6252 182.871 28.063 182.303 27.625C181.735 27.1752 180.859 26.8319 179.675 26.5952L174.952 25.6541C172.289 25.1214 170.306 24.1982 169.004 22.8842C167.713 21.5703 167.068 19.8954 167.068 17.8594C167.068 16.1075 167.542 14.5982 168.489 13.3317C169.448 12.0651 170.791 11.0885 172.519 10.402C174.259 9.71544 176.295 9.37216 178.627 9.37216C182.072 9.37216 184.783 10.1001 186.759 11.5561C188.748 13.0121 189.908 14.9948 190.24 17.5043Z"/>
</mask>
<path d="M4.55504 37V0.636363H12.2433V15.6399H27.8505V0.636363H35.521V37H27.8505V21.9787H12.2433V37H4.55504ZM54.1467 37.5327C51.3413 37.5327 48.9265 36.9645 46.9023 35.8281C44.89 34.6799 43.3394 33.0582 42.2504 30.9631C41.1613 28.8561 40.6168 26.3643 40.6168 23.4879C40.6168 20.6825 41.1613 18.2204 42.2504 16.1016C43.3394 13.9827 44.8723 12.3314 46.8491 11.1477C48.8377 9.96401 51.1696 9.37216 53.8448 9.37216C55.6441 9.37216 57.319 9.66217 58.8697 10.2422C60.4322 10.8104 61.7934 11.6686 62.9535 12.8168C64.1254 13.965 65.0368 15.4091 65.6879 17.1491C66.3389 18.8774 66.6644 20.9015 66.6644 23.2216V25.299H43.6353V20.6115H59.5444C59.5444 19.5225 59.3076 18.5578 58.8342 17.7173C58.3607 16.8769 57.7037 16.2199 56.8633 15.7464C56.0347 15.2611 55.07 15.0185 53.9691 15.0185C52.8209 15.0185 51.8029 15.2848 50.9151 15.8175C50.0392 16.3383 49.3526 17.0426 48.8555 17.9304C48.3583 18.8063 48.1038 19.7829 48.092 20.8601V25.3168C48.092 26.6662 48.3406 27.8321 48.8377 28.8146C49.3467 29.7971 50.0629 30.5547 50.9862 31.0874C51.9094 31.62 53.0044 31.8864 54.271 31.8864C55.1114 31.8864 55.8808 31.768 56.5792 31.5312C57.2776 31.2945 57.8754 30.9394 58.3725 30.4659C58.8697 29.9924 59.2485 29.4124 59.5089 28.7259L66.5046 29.1875C66.1495 30.8684 65.4215 32.3362 64.3207 33.5909C63.2317 34.8338 61.823 35.8045 60.0948 36.5028C58.3784 37.1894 56.3957 37.5327 54.1467 37.5327ZM71.6005 37V9.72727H78.9336V14.4858H79.2177C79.7148 12.7931 80.5494 11.5147 81.7212 10.6506C82.8931 9.77462 84.2425 9.33665 85.7695 9.33665C86.1483 9.33665 86.5567 9.36032 86.9947 9.40767C87.4326 9.45502 87.8174 9.52012 88.1488 9.60298V16.3146C87.7937 16.2081 87.3024 16.1134 86.6751 16.0305C86.0477 15.9477 85.4736 15.9062 84.9528 15.9062C83.8401 15.9062 82.8458 16.1489 81.9698 16.6342C81.1057 17.1077 80.4192 17.7706 79.9102 18.6229C79.413 19.4751 79.1644 20.4576 79.1644 21.5703V37H71.6005ZM92.0595 37V9.72727H99.2683V14.5391H99.5879C100.156 12.9411 101.103 11.6804 102.429 10.7571C103.755 9.83381 105.341 9.37216 107.187 9.37216C109.058 9.37216 110.65 9.83973 111.964 10.7749C113.278 11.6982 114.153 12.9529 114.591 14.5391H114.876C115.432 12.9766 116.438 11.7277 117.894 10.7926C119.362 9.84564 121.096 9.37216 123.096 9.37216C125.641 9.37216 127.707 10.183 129.293 11.8047C130.891 13.4145 131.69 15.6991 131.69 18.6584V37H124.144V20.1499C124.144 18.6347 123.742 17.4983 122.937 16.7408C122.132 15.9832 121.126 15.6044 119.918 15.6044C118.545 15.6044 117.474 16.0424 116.704 16.9183C115.935 17.7824 115.55 18.9247 115.55 20.3452V37H108.217V19.9901C108.217 18.6525 107.832 17.5871 107.063 16.794C106.305 16.0009 105.305 15.6044 104.062 15.6044C103.222 15.6044 102.464 15.8175 101.79 16.2436C101.127 16.6579 100.6 17.2438 100.209 18.0014C99.8187 18.7472 99.6234 19.6231 99.6234 20.6293V37H92.0595ZM150.094 37.5327C147.289 37.5327 144.874 36.9645 142.85 35.8281C140.837 34.6799 139.287 33.0582 138.198 30.9631C137.109 28.8561 136.564 26.3643 136.564 23.4879C136.564 20.6825 137.109 18.2204 138.198 16.1016C139.287 13.9827 140.82 12.3314 142.796 11.1477C144.785 9.96401 147.117 9.37216 149.792 9.37216C151.591 9.37216 153.266 9.66217 154.817 10.2422C156.379 10.8104 157.741 11.6686 158.901 12.8168C160.073 13.965 160.984 15.4091 161.635 17.1491C162.286 18.8774 162.612 20.9015 162.612 23.2216V25.299H139.583V20.6115H155.492C155.492 19.5225 155.255 18.5578 154.781 17.7173C154.308 16.8769 153.651 16.2199 152.811 15.7464C151.982 15.2611 151.017 15.0185 149.916 15.0185C148.768 15.0185 147.75 15.2848 146.862 15.8175C145.986 16.3383 145.3 17.0426 144.803 17.9304C144.306 18.8063 144.051 19.7829 144.039 20.8601V25.3168C144.039 26.6662 144.288 27.8321 144.785 28.8146C145.294 29.7971 146.01 30.5547 146.933 31.0874C147.857 31.62 148.952 31.8864 150.218 31.8864C151.059 31.8864 151.828 31.768 152.526 31.5312C153.225 31.2945 153.823 30.9394 154.32 30.4659C154.817 29.9924 155.196 29.4124 155.456 28.7259L162.452 29.1875C162.097 30.8684 161.369 32.3362 160.268 33.5909C159.179 34.8338 157.77 35.8045 156.042 36.5028C154.326 37.1894 152.343 37.5327 150.094 37.5327ZM190.24 17.5043L183.315 17.9304C183.196 17.3385 182.942 16.8059 182.551 16.3324C182.161 15.8471 181.646 15.4624 181.007 15.1783C180.379 14.8823 179.628 14.7344 178.752 14.7344C177.58 14.7344 176.591 14.983 175.786 15.4801C174.981 15.9654 174.579 16.6165 174.579 17.4332C174.579 18.0843 174.839 18.6347 175.36 19.0845C175.881 19.5343 176.775 19.8954 178.041 20.1676L182.977 21.1619C185.629 21.7064 187.606 22.5824 188.908 23.7898C190.21 24.9972 190.861 26.5833 190.861 28.5483C190.861 30.3357 190.334 31.9041 189.281 33.2536C188.239 34.603 186.807 35.6565 184.984 36.4141C183.173 37.1598 181.084 37.5327 178.716 37.5327C175.106 37.5327 172.229 36.781 170.087 35.2777C167.956 33.7625 166.707 31.7029 166.34 29.0987L173.78 28.7081C174.005 29.8089 174.549 30.6494 175.414 31.2294C176.278 31.7976 177.384 32.0817 178.734 32.0817C180.06 32.0817 181.125 31.8272 181.93 31.3182C182.747 30.7973 183.161 30.1286 183.173 29.3118C183.161 28.6252 182.871 28.063 182.303 27.625C181.735 27.1752 180.859 26.8319 179.675 26.5952L174.952 25.6541C172.289 25.1214 170.306 24.1982 169.004 22.8842C167.713 21.5703 167.068 19.8954 167.068 17.8594C167.068 16.1075 167.542 14.5982 168.489 13.3317C169.448 12.0651 170.791 11.0885 172.519 10.402C174.259 9.71544 176.295 9.37216 178.627 9.37216C182.072 9.37216 184.783 10.1001 186.759 11.5561C188.748 13.0121 189.908 14.9948 190.24 17.5043Z" fill="url(#paint0_linear_23_166)" fill-opacity="0.88" shape-rendering="crispEdges"/>
<path d="M4.55504 37H3.55504V38H4.55504V37ZM4.55504 0.636363V-0.363637H3.55504V0.636363H4.55504ZM12.2433 0.636363H13.2433V-0.363637H12.2433V0.636363ZM12.2433 15.6399H11.2433V16.6399H12.2433V15.6399ZM27.8505 15.6399V16.6399H28.8505V15.6399H27.8505ZM27.8505 0.636363V-0.363637H26.8505V0.636363H27.8505ZM35.521 0.636363H36.521V-0.363637H35.521V0.636363ZM35.521 37V38H36.521V37H35.521ZM27.8505 37H26.8505V38H27.8505V37ZM27.8505 21.9787H28.8505V20.9787H27.8505V21.9787ZM12.2433 21.9787V20.9787H11.2433V21.9787H12.2433ZM12.2433 37V38H13.2433V37H12.2433ZM5.55504 37V0.636363H3.55504V37H5.55504ZM4.55504 1.63636H12.2433V-0.363637H4.55504V1.63636ZM11.2433 0.636363V15.6399H13.2433V0.636363H11.2433ZM12.2433 16.6399H27.8505V14.6399H12.2433V16.6399ZM28.8505 15.6399V0.636363H26.8505V15.6399H28.8505ZM27.8505 1.63636H35.521V-0.363637H27.8505V1.63636ZM34.521 0.636363V37H36.521V0.636363H34.521ZM35.521 36H27.8505V38H35.521V36ZM28.8505 37V21.9787H26.8505V37H28.8505ZM27.8505 20.9787H12.2433V22.9787H27.8505V20.9787ZM11.2433 21.9787V37H13.2433V21.9787H11.2433ZM12.2433 36H4.55504V38H12.2433V36ZM46.9023 35.8281L46.4067 36.6967L46.4128 36.7001L46.9023 35.8281ZM42.2504 30.9631L41.362 31.4222L41.3631 31.4243L42.2504 30.9631ZM42.2504 16.1016L41.361 15.6444L41.361 15.6444L42.2504 16.1016ZM46.8491 11.1477L46.3376 10.2884L46.3353 10.2898L46.8491 11.1477ZM58.8697 10.2422L58.5193 11.1788L58.5279 11.182L58.8697 10.2422ZM62.9535 12.8168L62.25 13.5275L62.2536 13.531L62.9535 12.8168ZM65.6879 17.1491L64.7513 17.4996L64.7521 17.5017L65.6879 17.1491ZM66.6644 25.299V26.299H67.6644V25.299H66.6644ZM43.6353 25.299H42.6353V26.299H43.6353V25.299ZM43.6353 20.6115V19.6115H42.6353V20.6115H43.6353ZM59.5444 20.6115V21.6115H60.5444V20.6115H59.5444ZM58.8342 17.7173L57.9629 18.2082L57.9629 18.2082L58.8342 17.7173ZM56.8633 15.7464L56.3579 16.6093L56.3651 16.6136L56.3724 16.6177L56.8633 15.7464ZM50.9151 15.8175L51.4262 16.677L51.4296 16.675L50.9151 15.8175ZM48.8555 17.9304L49.7252 18.424L49.728 18.419L48.8555 17.9304ZM48.092 20.8601L47.092 20.8491V20.8601H48.092ZM48.8377 28.8146L47.9454 29.2662L47.9498 29.2746L48.8377 28.8146ZM56.5792 31.5312L56.2582 30.5842L56.2582 30.5842L56.5792 31.5312ZM58.3725 30.4659L57.6829 29.7418L57.6829 29.7418L58.3725 30.4659ZM59.5089 28.7259L59.5747 27.728L58.8363 27.6793L58.5739 28.3712L59.5089 28.7259ZM66.5046 29.1875L67.483 29.3942L67.7215 28.2656L66.5705 28.1897L66.5046 29.1875ZM64.3207 33.5909L63.569 32.9314L63.5685 32.9319L64.3207 33.5909ZM60.0948 36.5028L60.4662 37.4313L60.4695 37.43L60.0948 36.5028ZM54.1467 36.5327C51.4771 36.5327 49.2383 35.9927 47.3919 34.9561L46.4128 36.7001C48.6147 37.9363 51.2054 38.5327 54.1467 38.5327V36.5327ZM47.3979 34.9596C45.556 33.9086 44.1398 32.4299 43.1377 30.5019L41.3631 31.4243C42.539 33.6866 44.2241 35.4513 46.4068 36.6967L47.3979 34.9596ZM43.1387 30.5039C42.1371 28.566 41.6168 26.2382 41.6168 23.4879H39.6168C39.6168 26.4905 40.1856 29.1462 41.362 31.4222L43.1387 30.5039ZM41.6168 23.4879C41.6168 20.8134 42.1353 18.513 43.1398 16.5587L41.361 15.6444C40.1874 17.9278 39.6168 20.5517 39.6168 23.4879H41.6168ZM43.1398 16.5587C44.1465 14.6 45.5518 13.0901 47.3628 12.0057L46.3353 10.2898C44.1927 11.5728 42.5323 13.3655 41.361 15.6444L43.1398 16.5587ZM47.3606 12.007C49.1717 10.929 51.3212 10.3722 53.8448 10.3722V8.37216C51.0181 8.37216 48.5037 8.99906 46.3376 10.2884L47.3606 12.007ZM53.8448 10.3722C55.5348 10.3722 57.0901 10.6442 58.5193 11.1788L59.22 9.30556C57.548 8.68014 55.7533 8.37216 53.8448 8.37216V10.3722ZM58.5279 11.182C59.9573 11.7018 61.1945 12.4828 62.25 13.5275L63.657 12.106C62.3923 10.8543 60.907 9.91897 59.2114 9.30239L58.5279 11.182ZM62.2536 13.531C63.3078 14.564 64.1447 15.8785 64.7513 17.4996L66.6244 16.7987C65.9289 14.9397 64.9429 13.366 63.6533 12.1025L62.2536 13.531ZM64.7521 17.5017C65.3513 19.0925 65.6644 20.9923 65.6644 23.2216H67.6644C67.6644 20.8107 67.3265 18.6623 66.6237 16.7966L64.7521 17.5017ZM65.6644 23.2216V25.299H67.6644V23.2216H65.6644ZM66.6644 24.299H43.6353V26.299H66.6644V24.299ZM44.6353 25.299V20.6115H42.6353V25.299H44.6353ZM43.6353 21.6115H59.5444V19.6115H43.6353V21.6115ZM60.5444 20.6115C60.5444 19.3731 60.2737 18.2352 59.7054 17.2265L57.9629 18.2082C58.3416 18.8803 58.5444 19.6719 58.5444 20.6115H60.5444ZM59.7054 17.2265C59.1423 16.2269 58.3537 15.4384 57.3541 14.8752L56.3724 16.6177C57.0537 17.0015 57.5791 17.5269 57.9629 18.2082L59.7054 17.2265ZM57.3687 14.8836C56.3655 14.296 55.2212 14.0185 53.9691 14.0185V16.0185C54.9187 16.0185 55.7039 16.2263 56.3579 16.6093L57.3687 14.8836ZM53.9691 14.0185C52.66 14.0185 51.4604 14.3241 50.4006 14.96L51.4296 16.675C52.1454 16.2455 52.9818 16.0185 53.9691 16.0185V14.0185ZM50.4041 14.9579C49.3774 15.5684 48.5661 16.4005 47.983 17.4418L49.728 18.419C50.1392 17.6847 50.701 17.1082 51.4262 16.677L50.4041 14.9579ZM47.9858 17.4368C47.3993 18.4702 47.1056 19.6148 47.092 20.8491L49.0919 20.8711C49.102 19.9511 49.3174 19.1425 49.7252 18.424L47.9858 17.4368ZM47.092 20.8601V25.3168H49.092V20.8601H47.092ZM47.092 25.3168C47.092 26.7882 47.3633 28.1156 47.9454 29.2661L49.73 28.3631C49.3179 27.5487 49.092 26.5441 49.092 25.3168H47.092ZM47.9498 29.2746C48.5432 30.42 49.3911 31.3216 50.4864 31.9535L51.4859 30.2212C50.7347 29.7878 50.1502 29.1742 49.7256 28.3546L47.9498 29.2746ZM50.4864 31.9535C51.588 32.5891 52.8621 32.8864 54.271 32.8864V30.8864C53.1467 30.8864 52.2309 30.651 51.4859 30.2212L50.4864 31.9535ZM54.271 32.8864C55.2056 32.8864 56.0851 32.7546 56.9002 32.4783L56.2582 30.5842C55.6765 30.7814 55.0172 30.8864 54.271 30.8864V32.8864ZM56.9002 32.4783C57.7259 32.1984 58.4521 31.771 59.0622 31.19L57.6829 29.7418C57.2986 30.1078 56.8293 30.3906 56.2582 30.5842L56.9002 32.4783ZM59.0622 31.19C59.6752 30.6062 60.1341 29.8971 60.4439 29.0805L58.5739 28.3712C58.3628 28.9277 58.0642 29.3786 57.6829 29.7418L59.0622 31.19ZM59.443 29.7237L66.4388 30.1853L66.5705 28.1897L59.5747 27.728L59.443 29.7237ZM65.5262 28.9808C65.2055 30.4989 64.5533 31.8095 63.569 32.9314L65.0724 34.2504C66.2898 32.8628 67.0935 31.2378 67.483 29.3942L65.5262 28.9808ZM63.5685 32.9319C62.5952 34.0428 61.322 34.9283 59.7201 35.5757L60.4695 37.43C62.324 36.6806 63.8681 35.6248 65.0728 34.2499L63.5685 32.9319ZM59.7234 35.5744C58.1477 36.2046 56.2953 36.5327 54.1467 36.5327V38.5327C56.4961 38.5327 58.6091 38.1741 60.4662 37.4313L59.7234 35.5744ZM71.6005 37H70.6005V38H71.6005V37ZM71.6005 9.72727V8.72727H70.6005V9.72727H71.6005ZM78.9336 9.72727H79.9336V8.72727H78.9336V9.72727ZM78.9336 14.4858H77.9336V15.4858H78.9336V14.4858ZM79.2177 14.4858V15.4858H79.9662L80.1772 14.7676L79.2177 14.4858ZM81.7212 10.6506L82.3147 11.4554L82.3199 11.4515L81.7212 10.6506ZM86.9947 9.40767L87.1022 8.41346L87.1022 8.41346L86.9947 9.40767ZM88.1488 9.60298H89.1488V8.8222L88.3913 8.63284L88.1488 9.60298ZM88.1488 16.3146L87.8614 17.2725L89.1488 17.6587V16.3146H88.1488ZM81.9698 16.6342L82.4504 17.5112L82.4545 17.5089L81.9698 16.6342ZM79.9102 18.6229L79.0516 18.1101L79.0464 18.119L79.9102 18.6229ZM79.1644 37V38H80.1644V37H79.1644ZM72.6005 37V9.72727H70.6005V37H72.6005ZM71.6005 10.7273H78.9336V8.72727H71.6005V10.7273ZM77.9336 9.72727V14.4858H79.9336V9.72727H77.9336ZM78.9336 15.4858H79.2177V13.4858H78.9336V15.4858ZM80.1772 14.7676C80.6261 13.239 81.3534 12.1642 82.3147 11.4554L81.1278 9.84572C79.7453 10.8651 78.8036 12.3472 78.2582 14.204L80.1772 14.7676ZM82.3199 11.4515C83.311 10.7107 84.4483 10.3366 85.7695 10.3366V8.33665C84.0368 8.33665 82.4752 8.83853 81.1225 9.8496L82.3199 11.4515ZM85.7695 10.3366C86.1072 10.3366 86.4793 10.3578 86.8872 10.4019L87.1022 8.41346C86.6341 8.36286 86.1894 8.33665 85.7695 8.33665V10.3366ZM86.8872 10.4019C87.2919 10.4456 87.6298 10.504 87.9063 10.5731L88.3913 8.63284C88.0049 8.53624 87.5734 8.46441 87.1022 8.41346L86.8872 10.4019ZM87.1488 9.60298V16.3146H89.1488V9.60298H87.1488ZM88.4361 15.3568C88.0065 15.2279 87.4549 15.1249 86.806 15.0391L86.5441 17.0219C87.15 17.1019 87.5808 17.1883 87.8614 17.2725L88.4361 15.3568ZM86.806 15.0391C86.1441 14.9517 85.5255 14.9062 84.9528 14.9062V16.9062C85.4217 16.9062 85.9513 16.9436 86.5441 17.0219L86.806 15.0391ZM84.9528 14.9062C83.6898 14.9062 82.5254 15.1832 81.4852 15.7595L82.4545 17.5089C83.1661 17.1146 83.9904 16.9062 84.9528 16.9062V14.9062ZM81.4893 15.7573C80.4678 16.317 79.6512 17.1062 79.0516 18.1101L80.7687 19.1356C81.1871 18.435 81.7437 17.8984 82.4503 17.5112L81.4893 15.7573ZM79.0464 18.119C78.4491 19.143 78.1644 20.3037 78.1644 21.5703H80.1644C80.1644 20.6116 80.3769 19.8073 80.7739 19.1267L79.0464 18.119ZM78.1644 21.5703V37H80.1644V21.5703H78.1644ZM79.1644 36H71.6005V38H79.1644V36ZM92.0595 37H91.0595V38H92.0595V37ZM92.0595 9.72727V8.72727H91.0595V9.72727H92.0595ZM99.2683 9.72727H100.268V8.72727H99.2683V9.72727ZM99.2683 14.5391H98.2683V15.5391H99.2683V14.5391ZM99.5879 14.5391V15.5391H100.294L100.53 14.8741L99.5879 14.5391ZM102.429 10.7571L101.857 9.93649L101.857 9.93649L102.429 10.7571ZM111.964 10.7749L111.384 11.5896L111.389 11.593L111.964 10.7749ZM114.591 14.5391L113.628 14.8052L113.83 15.5391H114.591V14.5391ZM114.876 14.5391V15.5391H115.581L115.818 14.8745L114.876 14.5391ZM117.894 10.7926L118.434 11.634L118.436 11.6329L117.894 10.7926ZM129.293 11.8047L128.578 12.5039L128.583 12.5092L129.293 11.8047ZM131.69 37V38H132.69V37H131.69ZM124.144 37H123.144V38H124.144V37ZM122.937 16.7408L122.251 17.469L122.251 17.469L122.937 16.7408ZM116.704 16.9183L117.451 17.5833L117.456 17.5783L116.704 16.9183ZM115.55 37V38H116.55V37H115.55ZM108.217 37H107.217V38H108.217V37ZM107.063 16.794L106.34 17.4848L106.345 17.4903L107.063 16.794ZM101.79 16.2436L102.32 17.0916L102.324 17.0891L101.79 16.2436ZM100.209 18.0014L101.095 18.4654L101.098 18.4597L100.209 18.0014ZM99.6234 37V38H100.623V37H99.6234ZM93.0595 37V9.72727H91.0595V37H93.0595ZM92.0595 10.7273H99.2683V8.72727H92.0595V10.7273ZM98.2683 9.72727V14.5391H100.268V9.72727H98.2683ZM99.2683 15.5391H99.5879V13.5391H99.2683V15.5391ZM100.53 14.8741C101.032 13.4622 101.855 12.3756 103 11.5777L101.857 9.93649C100.352 10.9852 99.2801 12.4199 98.6457 14.2041L100.53 14.8741ZM103 11.5777C104.135 10.7874 105.515 10.3722 107.187 10.3722V8.37216C105.167 8.37216 103.374 8.88025 101.857 9.93649L103 11.5777ZM107.187 10.3722C108.884 10.3722 110.265 10.7934 111.384 11.5896L112.543 9.96013C111.034 8.88602 109.231 8.37216 107.187 8.37216V10.3722ZM111.389 11.593C112.508 12.3795 113.25 13.4366 113.628 14.8052L115.555 14.2729C115.057 12.4692 114.047 11.0168 112.539 9.95666L111.389 11.593ZM114.591 15.5391H114.876V13.5391H114.591V15.5391ZM115.818 14.8745C116.296 13.5299 117.156 12.4551 118.434 11.634L117.354 9.95121C115.72 11.0004 114.567 12.4232 113.933 14.2036L115.818 14.8745ZM118.436 11.6329C119.72 10.8047 121.26 10.3722 123.096 10.3722V8.37216C120.932 8.37216 119.004 8.88658 117.352 9.95232L118.436 11.6329ZM123.096 10.3722C125.408 10.3722 127.204 11.0989 128.578 12.5039L130.008 11.1055C128.21 9.26715 125.874 8.37216 123.096 8.37216V10.3722ZM128.583 12.5092C129.944 13.8797 130.69 15.8794 130.69 18.6584H132.69C132.69 15.5188 131.838 12.9493 130.003 11.1002L128.583 12.5092ZM130.69 18.6584V37H132.69V18.6584H130.69ZM131.69 36H124.144V38H131.69V36ZM125.144 37V20.1499H123.144V37H125.144ZM125.144 20.1499C125.144 18.4645 124.693 17.021 123.622 16.0126L122.251 17.469C122.79 17.9757 123.144 18.8049 123.144 20.1499H125.144ZM123.622 16.0126C122.614 15.0636 121.355 14.6044 119.918 14.6044V16.6044C120.896 16.6044 121.65 16.9028 122.251 17.469L123.622 16.0126ZM119.918 14.6044C118.314 14.6044 116.947 15.1273 115.953 16.2584L117.456 17.5783C118.001 16.9574 118.777 16.6044 119.918 16.6044V14.6044ZM115.958 16.2533C114.99 17.3399 114.55 18.7378 114.55 20.3452H116.55C116.55 19.1116 116.88 18.225 117.451 17.5833L115.958 16.2533ZM114.55 20.3452V37H116.55V20.3452H114.55ZM115.55 36H108.217V38H115.55V36ZM109.217 37V19.9901H107.217V37H109.217ZM109.217 19.9901C109.217 18.4506 108.768 17.1153 107.781 16.0977L106.345 17.4903C106.897 18.0589 107.217 18.8543 107.217 19.9901H109.217ZM107.786 16.1033C106.814 15.0856 105.538 14.6044 104.062 14.6044V16.6044C105.072 16.6044 105.797 16.9163 106.34 17.4848L107.786 16.1033ZM104.062 14.6044C103.043 14.6044 102.099 14.8656 101.256 15.3981L102.324 17.0891C102.83 16.7694 103.4 16.6044 104.062 16.6044V14.6044ZM101.26 15.3956C100.431 15.9137 99.7859 16.6407 99.3205 17.5431L101.098 18.4597C101.414 17.847 101.823 17.4021 102.32 17.0916L101.26 15.3956ZM99.3235 17.5374C98.8446 18.4517 98.6234 19.4928 98.6234 20.6293H100.623C100.623 19.7534 100.793 19.0426 101.095 18.4654L99.3235 17.5374ZM98.6234 20.6293V37H100.623V20.6293H98.6234ZM99.6234 36H92.0595V38H99.6234V36ZM142.85 35.8281L142.354 36.6967L142.36 36.7001L142.85 35.8281ZM138.198 30.9631L137.309 31.4222L137.31 31.4243L138.198 30.9631ZM138.198 16.1016L137.308 15.6444L137.308 15.6444L138.198 16.1016ZM142.796 11.1477L142.285 10.2884L142.283 10.2898L142.796 11.1477ZM154.817 10.2422L154.467 11.1788L154.475 11.182L154.817 10.2422ZM158.901 12.8168L158.197 13.5275L158.201 13.531L158.901 12.8168ZM161.635 17.1491L160.699 17.4996L160.699 17.5017L161.635 17.1491ZM162.612 25.299V26.299H163.612V25.299H162.612ZM139.583 25.299H138.583V26.299H139.583V25.299ZM139.583 20.6115V19.6115H138.583V20.6115H139.583ZM155.492 20.6115V21.6115H156.492V20.6115H155.492ZM154.781 17.7173L153.91 18.2082L153.91 18.2082L154.781 17.7173ZM152.811 15.7464L152.305 16.6093L152.312 16.6136L152.32 16.6177L152.811 15.7464ZM146.862 15.8175L147.373 16.677L147.377 16.675L146.862 15.8175ZM144.803 17.9304L145.672 18.424L145.675 18.419L144.803 17.9304ZM144.039 20.8601L143.039 20.8491V20.8601H144.039ZM144.785 28.8146L143.893 29.2662L143.897 29.2746L144.785 28.8146ZM152.526 31.5312L152.205 30.5842L152.205 30.5842L152.526 31.5312ZM154.32 30.4659L153.63 29.7418L153.63 29.7418L154.32 30.4659ZM155.456 28.7259L155.522 27.728L154.784 27.6793L154.521 28.3712L155.456 28.7259ZM162.452 29.1875L163.43 29.3942L163.669 28.2656L162.518 28.1897L162.452 29.1875ZM160.268 33.5909L159.516 32.9314L159.516 32.9319L160.268 33.5909ZM156.042 36.5028L156.413 37.4313L156.417 37.43L156.042 36.5028ZM150.094 36.5327C147.424 36.5327 145.186 35.9927 143.339 34.9561L142.36 36.7001C144.562 37.9363 147.153 38.5327 150.094 38.5327V36.5327ZM143.345 34.9596C141.503 33.9086 140.087 32.4299 139.085 30.5019L137.31 31.4243C138.486 33.6866 140.171 35.4513 142.354 36.6967L143.345 34.9596ZM139.086 30.5039C138.084 28.566 137.564 26.2382 137.564 23.4879H135.564C135.564 26.4905 136.133 29.1462 137.309 31.4222L139.086 30.5039ZM137.564 23.4879C137.564 20.8134 138.083 18.513 139.087 16.5587L137.308 15.6444C136.135 17.9278 135.564 20.5517 135.564 23.4879H137.564ZM139.087 16.5587C140.094 14.6 141.499 13.0901 143.31 12.0057L142.283 10.2898C140.14 11.5728 138.48 13.3655 137.308 15.6444L139.087 16.5587ZM143.308 12.007C145.119 10.929 147.268 10.3722 149.792 10.3722V8.37216C146.965 8.37216 144.451 8.99906 142.285 10.2884L143.308 12.007ZM149.792 10.3722C151.482 10.3722 153.037 10.6442 154.467 11.1788L155.167 9.30556C153.495 8.68014 151.701 8.37216 149.792 8.37216V10.3722ZM154.475 11.182C155.905 11.7018 157.142 12.4828 158.197 13.5275L159.604 12.106C158.34 10.8543 156.854 9.91897 155.159 9.30239L154.475 11.182ZM158.201 13.531C159.255 14.564 160.092 15.8785 160.699 17.4996L162.572 16.7987C161.876 14.9397 160.89 13.366 159.601 12.1025L158.201 13.531ZM160.699 17.5017C161.299 19.0925 161.612 20.9923 161.612 23.2216H163.612C163.612 20.8107 163.274 18.6623 162.571 16.7966L160.699 17.5017ZM161.612 23.2216V25.299H163.612V23.2216H161.612ZM162.612 24.299H139.583V26.299H162.612V24.299ZM140.583 25.299V20.6115H138.583V25.299H140.583ZM139.583 21.6115H155.492V19.6115H139.583V21.6115ZM156.492 20.6115C156.492 19.3731 156.221 18.2352 155.653 17.2265L153.91 18.2082C154.289 18.8803 154.492 19.6719 154.492 20.6115H156.492ZM155.653 17.2265C155.09 16.2269 154.301 15.4384 153.301 14.8752L152.32 16.6177C153.001 17.0015 153.526 17.5269 153.91 18.2082L155.653 17.2265ZM153.316 14.8836C152.313 14.296 151.168 14.0185 149.916 14.0185V16.0185C150.866 16.0185 151.651 16.2263 152.305 16.6093L153.316 14.8836ZM149.916 14.0185C148.607 14.0185 147.408 14.3241 146.348 14.96L147.377 16.675C148.093 16.2455 148.929 16.0185 149.916 16.0185V14.0185ZM146.351 14.9579C145.325 15.5684 144.513 16.4005 143.93 17.4418L145.675 18.419C146.086 17.6847 146.648 17.1082 147.373 16.677L146.351 14.9579ZM143.933 17.4368C143.347 18.4702 143.053 19.6148 143.039 20.8491L145.039 20.8711C145.049 19.9511 145.265 19.1425 145.672 18.424L143.933 17.4368ZM143.039 20.8601V25.3168H145.039V20.8601H143.039ZM143.039 25.3168C143.039 26.7882 143.311 28.1156 143.893 29.2661L145.677 28.3631C145.265 27.5487 145.039 26.5441 145.039 25.3168H143.039ZM143.897 29.2746C144.49 30.42 145.338 31.3216 146.434 31.9535L147.433 30.2212C146.682 29.7878 146.097 29.1742 145.673 28.3546L143.897 29.2746ZM146.434 31.9535C147.535 32.5891 148.809 32.8864 150.218 32.8864V30.8864C149.094 30.8864 148.178 30.651 147.433 30.2212L146.434 31.9535ZM150.218 32.8864C151.153 32.8864 152.032 32.7546 152.847 32.4783L152.205 30.5842C151.624 30.7814 150.964 30.8864 150.218 30.8864V32.8864ZM152.847 32.4783C153.673 32.1984 154.399 31.771 155.009 31.19L153.63 29.7418C153.246 30.1078 152.777 30.3906 152.205 30.5842L152.847 32.4783ZM155.009 31.19C155.622 30.6062 156.081 29.8971 156.391 29.0805L154.521 28.3712C154.31 28.9277 154.011 29.3786 153.63 29.7418L155.009 31.19ZM155.39 29.7237L162.386 30.1853L162.518 28.1897L155.522 27.728L155.39 29.7237ZM161.473 28.9808C161.153 30.4989 160.501 31.8095 159.516 32.9314L161.02 34.2504C162.237 32.8628 163.041 31.2378 163.43 29.3942L161.473 28.9808ZM159.516 32.9319C158.542 34.0428 157.269 34.9283 155.667 35.5757L156.417 37.43C158.271 36.6806 159.815 35.6248 161.02 34.2499L159.516 32.9319ZM155.671 35.5744C154.095 36.2046 152.243 36.5327 150.094 36.5327V38.5327C152.443 38.5327 154.556 38.1741 156.413 37.4313L155.671 35.5744ZM190.24 17.5043L190.301 18.5024L191.371 18.4365L191.231 17.3733L190.24 17.5043ZM183.315 17.9304L182.334 18.1265L182.505 18.9821L183.376 18.9285L183.315 17.9304ZM182.551 16.3324L181.772 16.9594L181.78 16.9688L182.551 16.3324ZM181.007 15.1783L180.58 16.0827L180.59 16.0875L180.6 16.0921L181.007 15.1783ZM175.786 15.4801L176.303 16.3365L176.312 16.3309L175.786 15.4801ZM175.36 19.0845L174.707 19.8413L174.707 19.8413L175.36 19.0845ZM178.041 20.1676L177.831 21.1454L177.844 21.1479L178.041 20.1676ZM182.977 21.1619L183.179 20.1824L183.175 20.1816L182.977 21.1619ZM188.908 23.7898L188.228 24.523L188.228 24.523L188.908 23.7898ZM189.281 33.2536L188.492 32.6382L188.489 32.6425L189.281 33.2536ZM184.984 36.4141L185.365 37.3387L185.368 37.3375L184.984 36.4141ZM170.087 35.2777L169.507 36.0927L169.512 36.0963L170.087 35.2777ZM166.34 29.0987L166.288 28.1001L165.198 28.1573L165.35 29.2383L166.34 29.0987ZM173.78 28.7081L174.76 28.5079L174.587 27.6643L173.728 27.7095L173.78 28.7081ZM175.414 31.2294L174.856 32.0597L174.864 32.065L175.414 31.2294ZM181.93 31.3182L182.464 32.1634L182.468 32.1613L181.93 31.3182ZM183.173 29.3118L184.173 29.3263L184.173 29.3104L184.173 29.2946L183.173 29.3118ZM182.303 27.625L181.682 28.4091L181.692 28.417L182.303 27.625ZM179.675 26.5952L179.871 25.6146L179.87 25.6144L179.675 26.5952ZM174.952 25.6541L174.756 26.6347L174.756 26.6348L174.952 25.6541ZM169.004 22.8842L168.29 23.5849L168.293 23.5881L169.004 22.8842ZM168.489 13.3317L167.691 12.7281L167.688 12.7329L168.489 13.3317ZM172.519 10.402L172.152 9.47177L172.15 9.47264L172.519 10.402ZM186.759 11.5561L186.166 12.3613L186.169 12.363L186.759 11.5561ZM190.178 16.5061L183.253 16.9323L183.376 18.9285L190.301 18.5024L190.178 16.5061ZM184.295 17.7343C184.144 16.9778 183.816 16.2945 183.323 15.696L181.78 16.9688C182.067 17.3173 182.249 17.6993 182.334 18.1265L184.295 17.7343ZM183.33 15.7054C182.828 15.0816 182.179 14.6051 181.413 14.2645L180.6 16.0921C181.112 16.3196 181.493 16.6125 181.772 16.9594L183.33 15.7054ZM181.433 14.2738C180.642 13.9007 179.737 13.7344 178.752 13.7344V15.7344C179.518 15.7344 180.116 15.864 180.58 16.0827L181.433 14.2738ZM178.752 13.7344C177.438 13.7344 176.258 14.0138 175.261 14.6293L176.312 16.3309C176.925 15.9522 177.721 15.7344 178.752 15.7344V13.7344ZM175.27 14.6237C174.219 15.2577 173.579 16.2075 173.579 17.4332H175.579C175.579 17.0254 175.744 16.6732 176.303 16.3365L175.27 14.6237ZM173.579 17.4332C173.579 18.3933 173.98 19.2139 174.707 19.8413L176.014 18.3277C175.699 18.0555 175.579 17.7753 175.579 17.4332H173.579ZM174.707 19.8413C175.423 20.4603 176.522 20.8638 177.831 21.1453L178.252 19.1899C177.028 18.9269 176.339 18.6084 176.014 18.3277L174.707 19.8413ZM177.844 21.1479L182.78 22.1422L183.175 20.1816L178.239 19.1873L177.844 21.1479ZM182.776 22.1415C185.335 22.667 187.113 23.4889 188.228 24.523L189.588 23.0565C188.099 21.6759 185.922 20.7458 183.179 20.1824L182.776 22.1415ZM188.228 24.523C189.303 25.5199 189.861 26.8287 189.861 28.5483H191.861C191.861 26.3379 191.117 24.4744 189.588 23.0565L188.228 24.523ZM189.861 28.5483C189.861 30.1233 189.402 31.4727 188.492 32.6382L190.069 33.8689C191.266 32.3356 191.861 30.5481 191.861 28.5483H189.861ZM188.489 32.6425C187.57 33.8336 186.288 34.7892 184.6 35.4906L185.368 37.3375C187.326 36.5238 188.908 35.3724 190.072 33.8646L188.489 32.6425ZM184.603 35.4894C182.935 36.1762 180.979 36.5327 178.716 36.5327V38.5327C181.188 38.5327 183.41 38.1434 185.365 37.3387L184.603 35.4894ZM178.716 36.5327C175.235 36.5327 172.582 35.8072 170.661 34.4591L169.512 36.0963C171.876 37.7548 174.976 38.5327 178.716 38.5327V36.5327ZM170.666 34.4627C168.761 33.1078 167.659 31.2932 167.331 28.9592L165.35 29.2383C165.755 32.1126 167.151 34.4173 169.507 36.0927L170.666 34.4627ZM166.393 30.0973L173.832 29.7067L173.728 27.7095L166.288 28.1001L166.393 30.0973ZM172.8 28.9083C173.073 30.2439 173.756 31.3209 174.856 32.0597L175.971 30.3991C175.343 29.9779 174.937 29.374 174.76 28.5079L172.8 28.9083ZM174.864 32.065C175.934 32.7687 177.248 33.0817 178.734 33.0817V31.0817C177.521 31.0817 176.621 30.8265 175.963 30.3938L174.864 32.065ZM178.734 33.0817C180.178 33.0817 181.448 32.8058 182.464 32.1634L181.395 30.473C180.801 30.8486 179.942 31.0817 178.734 31.0817V33.0817ZM182.468 32.1613C183.507 31.4985 184.155 30.5458 184.173 29.3263L182.173 29.2973C182.167 29.7113 181.986 30.0962 181.392 30.475L182.468 32.1613ZM184.173 29.2946C184.155 28.2886 183.71 27.447 182.913 26.833L181.692 28.417C182.032 28.679 182.167 28.9619 182.173 29.329L184.173 29.2946ZM182.923 26.841C182.175 26.2483 181.119 25.8642 179.871 25.6146L179.479 27.5758C180.598 27.7996 181.294 28.1021 181.682 28.409L182.923 26.841ZM179.87 25.6144L175.147 24.6734L174.756 26.6348L179.479 27.5759L179.87 25.6144ZM175.148 24.6735C172.593 24.1626 170.825 23.3011 169.714 22.1803L168.293 23.5881C169.787 25.0952 171.984 26.0803 174.756 26.6347L175.148 24.6735ZM169.717 22.1836C168.631 21.0772 168.068 19.6636 168.068 17.8594H166.068C166.068 20.1271 166.796 22.0634 168.29 23.5849L169.717 22.1836ZM168.068 17.8594C168.068 16.2988 168.486 15.0055 169.29 13.9305L167.688 12.7329C166.598 14.191 166.068 15.9161 166.068 17.8594H168.068ZM169.286 13.9352C170.117 12.8376 171.301 11.9621 172.889 11.3313L172.15 9.47264C170.282 10.215 168.778 11.2926 167.692 12.7281L169.286 13.9352ZM172.886 11.3322C174.485 10.7016 176.391 10.3722 178.627 10.3722V8.37216C176.2 8.37216 174.034 8.72929 172.152 9.47178L172.886 11.3322ZM178.627 10.3722C181.942 10.3722 184.418 11.0738 186.166 12.3613L187.352 10.7509C185.147 9.12646 182.202 8.37216 178.627 8.37216V10.3722ZM186.169 12.363C187.931 13.6529 188.951 15.388 189.248 17.6352L191.231 17.3733C190.865 14.6016 189.566 12.3713 187.35 10.7492L186.169 12.363Z" fill="black" mask="url(#path-1-outside-1_23_166)"/>
</g>
<defs>
<filter id="filter0_d_23_166" x="0.555046" y="0.636353" width="194.306" height="44.8963" filterUnits="userSpaceOnUse" color-interpolation-filters="sRGB">
<feFlood flood-opacity="0" result="BackgroundImageFix"/>
<feColorMatrix in="SourceAlpha" type="matrix" values="0 0 0 0 0 0 0 0 0 0 0 0 0 0 0 0 0 0 127 0" result="hardAlpha"/>
<feOffset dy="4"/>
<feGaussianBlur stdDeviation="2"/>
<feComposite in2="hardAlpha" operator="out"/>
<feColorMatrix type="matrix" values="0 0 0 0 0 0 0 0 0 0 0 0 0 0 0 0 0 0 0.25 0"/>
<feBlend mode="normal" in2="BackgroundImageFix" result="effect1_dropShadow_23_166"/>
<feBlend mode="normal" in="SourceGraphic" in2="effect1_dropShadow_23_166" result="shape"/>
</filter>
<linearGradient id="paint0_linear_23_166" x1="97" y1="-12" x2="97" y2="49" gradientUnits="userSpaceOnUse">
<stop stop-color="#4830D9"/>
<stop offset="0.630208" stop-color="#BE2929" stop-opacity="0.878567"/>
<stop offset="0.958333" stop-color="#FF001D" stop-opacity="0.140625"/>
<stop offset="1" stop-color="#F80909" stop-opacity="0"/>
</linearGradient>
</defs>
</svg>
